<?xml version="1.0" encoding="UTF-8" standalone="no"?>
<svg
   xmlns:dc="http://purl.org/dc/elements/1.1/"
   xmlns:cc="http://creativecommons.org/ns#"
   xmlns:rdf="http://www.w3.org/1999/02/22-rdf-syntax-ns#"
   xmlns:svg="http://www.w3.org/2000/svg"
   xmlns="http://www.w3.org/2000/svg"
   viewBox="0 0 744.15002 1052.4"
   height="1052.4"
   width="744.15002"
   xml:space="preserve"
   version="1.1"
   id="svg2"><metadata
     id="metadata8"><rdf:RDF><cc:Work
         rdf:about=""><dc:format>image/svg+xml</dc:format><dc:type
           rdf:resource="http://purl.org/dc/dcmitype/StillImage" /></cc:Work></rdf:RDF></metadata><defs
     id="defs6"><clipPath
       id="clipPath16"
       clipPathUnits="userSpaceOnUse"><path
         style="clip-rule:evenodd"
         id="path18"
         d="M 8.871e-6,0 595.32001,0 l 0,841.92 -595.320001129,0 0,-841.92 z" /></clipPath><clipPath
       id="clipPath24"
       clipPathUnits="userSpaceOnUse"><path
         style="clip-rule:evenodd"
         id="path26"
         d="M 8.871e-6,0 595.32001,0 l 0,841.92 -595.320001129,0 0,-841.92 z" /></clipPath><clipPath
       id="clipPath32"
       clipPathUnits="userSpaceOnUse"><path
         style="clip-rule:evenodd"
         id="path34"
         d="M 8.871e-6,0 595.32001,0 l 0,841.92 -595.320001129,0 0,-841.92 z" /></clipPath><clipPath
       id="clipPath40"
       clipPathUnits="userSpaceOnUse"><path
         style="clip-rule:evenodd"
         id="path42"
         d="M 8.871e-6,0 595.32001,0 l 0,841.92 -595.320001129,0 0,-841.92 z" /></clipPath><clipPath
       id="clipPath48"
       clipPathUnits="userSpaceOnUse"><path
         style="clip-rule:evenodd"
         id="path50"
         d="M 8.871e-6,0 595.32001,0 l 0,841.92 -595.320001129,0 0,-841.92 z" /></clipPath><clipPath
       id="clipPath56"
       clipPathUnits="userSpaceOnUse"><path
         style="clip-rule:evenodd"
         id="path58"
         d="M 8.871e-6,0 595.32001,0 l 0,841.92 -595.320001129,0 0,-841.92 z" /></clipPath></defs><g
     transform="matrix(1.25,0,0,-1.25,0,1052.4)"
     id="g10"><g
       id="g12"><g
         clip-path="url(#clipPath16)"
         id="g14" /></g><g
       id="g20"><g
         clip-path="url(#clipPath24)"
         id="g22" /></g><g
       id="g28"><g
         clip-path="url(#clipPath32)"
         id="g30" /></g><g
       id="g36"><g
         clip-path="url(#clipPath40)"
         id="g38" /></g><g
       id="g44"><g
         clip-path="url(#clipPath48)"
         id="g46" /></g><g
       id="g52"><g
         clip-path="url(#clipPath56)"
         id="g54" /></g></g></svg>